# xmcd CD database file
#
# Track frame offsets:
#	150
#	32140
#	65457
#	92740
#	112100
#	140885
#	160860
#	185992
#	207017
#	233497
#	250592
#	275077
#
# Disc length: 4082 seconds
#
# Revision: 1
# Processed by: cddbd v1.5.1PL0 Copyright (c) Steve Scherf et al.
# Submitted via: CDex 1.51
#
DISCID=b00ff00c
DTITLE=LOOP SESSION - Bad Soup Hidden
DYEAR=2005
DGENRE=Jazz
TTITLE0=Shadows On Thw Sun(When You're Not Here )
TTITLE1=Anima Latin
TTITLE2=Heaven Of The Time
TTITLE3=Catchin'Up
TTITLE4=Voice
TTITLE5=Split
TTITLE6=眼鏡
TTITLE7=Covering With The Sheep Skin
TTITLE8=Info-Surf
TTITLE9=Chasin'Dogs
TTITLE10=Make It Easy On Yourself
TTITLE11=Shadows On Thw Sun(When You're Not Here )
EXTD=YEAR: 2005
EXTT0=
EXTT1=
EXTT2=
EXTT3=
EXTT4=
EXTT5=
EXTT6=
EXTT7=
EXTT8=
EXTT9=
EXTT10=
EXTT11=
PLAYORDER=
